#!OML:ASF F:\twosubjects\two\wednesday\Session 1\rory1.ASF
:FULLY-SPECIFIED
:DEGREES
244
root -5.80959 17.6443 -13.3714 201.767 47.9857 -161.692
lowerback 7.98098 -1.22857 -10.6415
upperback 1.52628 -2.37856 -3.71638
thorax -2.59319 -0.999756 2.3057
lowerneck 0.630043 -21.2003 -22.0044
upperneck 5.81749 -32.4923 30.1806
head 10.864 -15.2998 8.50169
rclavicle -1.74931e-014 -6.36111e-015
rhumerus 94.3391 -75.5653 -132.199
rradius 11.425
rwrist 2.19404
rhand -0.341569 2.6872
rfingers 7.12502
rthumb 25.2632 -25.6602
lclavicle -1.74931e-014 -6.36111e-015
lhumerus -17.0569 0.319711 34.1444
lradius 32.69
lwrist 5.60541
lhand -27.2432 18.3776
lfingers 7.12502
lthumb -0.654967 48.3563
rfemur -26.5987 -2.75346 31.3059
rtibia 32.8049
rfoot -8.64224 -16.3388
rtoes 12.852
lfemur -15.2676 13.3234 -18.9156
ltibia 63.3581
lfoot 5.16848 6.38153
ltoes -26.5772
245
root -5.67578 17.6101 -13.6308 202.156 49.5159 -160.338
lowerback 8.07125 -1.16283 -9.92714
upperback 1.84027 -2.22557 -3.56809
thorax -2.35535 -0.954299 2.05391
lowerneck 0.129256 -21.208 -21.2366
upperneck 5.66549 -32.2262 29.5021
head 10.5154 -15.1527 8.21645
rclavicle 7.07673e-014 -6.36111e-014
rhumerus 99.3403 -74.8571 -137.36
rradius 11.324
rwrist 3.07361
rhand -0.652955 3.09799
rfingers 7.12502
rthumb 24.9648 -25.2911
lclavicle 7.07673e-014 -6.36111e-014
lhumerus -17.4956 0.992022 33.5955
lradius 32.4035
lwrist 5.47835
lhand -27.6302 16.961
lfingers 7.12502
lthumb -1.02876 46.9383
rfemur -25.146 -3.04195 31.3628
rtibia 33.6608
rfoot -9.63411 -15.4203
rtoes 10.5617
lfemur -15.3693 14.2931 -18.0534
ltibia 66.1731
lfoot 2.41259 7.24571
ltoes -23.8518
246
root -5.5694 17.5669 -13.8414 202.906 51.3111 -158.761
lowerback 8.72659 -0.91283 -9.43704
upperback 1.97474 -1.9337 -3.38718
thorax -2.62322 -0.81031 1.96044
lowerneck -0.475575 -21.344 -20.3526
upperneck 5.36544 -32.1432 28.9707
head 10.2057 -15.0758 7.90155
rclavicle 4.69132e-014 1.17681e-013
rhumerus 112.675 -73.1107 -151.047
rradius 11.0317
rwrist 7.1867
rhand -0.440421 3.40618
rfingers 7.12502
rthumb 25.1685 -24.9545
lclavicle 4.69132e-014 1.17681e-013
lhumerus -18.0116 1.35852 33.0431
lradius 32.5866
lwrist 6.2377
lhand -27.7621 16.0946
lfingers 7.12502
lthumb -1.15618 46.0712
rfemur -23.9531 -2.44001 31.3994
rtibia 34.1946
rfoot -10.4071 -14.9405
rtoes 9.83863
lfemur -15.9341 15.1639 -17.2215
ltibia 68.9625
lfoot -0.58775 8.94939
ltoes -18.5896
247
root -5.45289 17.5194 -14.0589 203.342 53.3474 -157.868
lowerback 9.00835 -0.613452 -9.46694
upperback 2.11036 -1.56183 -3.35079
thorax -2.67313 -0.627053 1.98106
lowerneck 0.267237 -20.9122 -21.9131
upperneck 5.1289 -31.7737 29.9848
head 10.4237 -15 8.59619
rclavicle 2.62396e-014 -2.22639e-014
rhumerus 126.179 -69.8267 -164.969
rradius 10.661
rwrist 12.862
rhand 0.100058 3.79389
rfingers 7.12502
rthumb 25.6862 -24.4931
lclavicle 2.62396e-014 -2.22639e-014
lhumerus -18.5963 2.60359 32.897
lradius 32.691
lwrist 5.82824
lhand -27.857 17.1435
lfingers 7.12502
lthumb -1.24782 47.1196
rfemur -22.9058 -2.19626 30.8373
rtibia 34.5466
rfoot -11.0689 -13.6231
rtoes 9.24435
lfemur -16.3079 15.9753 -17.2102
ltibia 71.3219
lfoot -3.41287 11.2475
ltoes -16.1835
248
root -5.32123 17.5098 -14.2859 204.177 55.3159 -156.779
lowerback 9.03135 -0.357318 -9.37418
upperback 2.18243 -1.21358 -3.34728
thorax -2.64826 -0.459349 1.89666
lowerneck -0.211618 -21.2232 -20.7775
upperneck 4.60392 -31.9207 29.5288
head 10.049 -15.0378 8.21218
rclavicle 2.62396e-014 8.5875e-014
rhumerus 128.25 -69.0885 -167.027
rradius 10.4973
rwrist 14.4544
rhand 1.21767 3.88501
rfingers 7.12502
rthumb 26.7562 -24.2429
lclavicle 2.62396e-014 8.5875e-014
lhumerus -19.1674 3.07791 32.705
lradius 32.7223
lwrist 5.74052
lhand -28.4323 18.5821
lfingers 7.12502
lthumb -1.80345 48.5542
rfemur -21.9471 -1.81833 30.3781
rtibia 34.7072
rfoot -11.5266 -12.4203
rtoes 7.93218
lfemur -17.6421 16.2575 -16.9947
ltibia 73.5501
lfoot -5.81657 13.1846
ltoes -10.278
249
root -5.1843 17.5038 -14.5029 205.825 57.0336 -155.011
lowerback 8.9846 -0.0556766 -8.91792
upperback 2.21183 -0.774811 -3.24721
thorax -2.6432 -0.251351 1.70174
lowerneck -0.165643 -21.2716 -21.3199
upperneck 4.38606 -32.0692 30.0922
head 10.2378 -15.1112 8.40552
rclavicle 1.98785e-014 6.67916e-014
rhumerus 124.885 -70.3887 -163.349
rradius 10.6168
rwrist 12.7748
rhand 1.33522 4.5135
rfingers 7.12502
rthumb 26.8686 -23.5972
lclavicle 1.98785e-014 6.67916e-014
lhumerus -19.3322 2.54176 32.5194
lradius 32.7553
lwrist 6.46997
lhand -28.6011 19.597
lfingers 7.12502
lthumb -1.96649 49.5677
rfemur -21.2987 -1.02041 30.3547
rtibia 34.9923
rfoot -12.0592 -11.8991
rtoes 7.19659
lfemur -19.5413 16.1673 -16.3571
ltibia 75.3658
lfoot -7.38175 14.5301
ltoes -9.3391
250
root -5.03555 17.5052 -14.7154 207.526 58.7027 -153.509
lowerback 8.54375 0.155191 -8.82186
upperback 2.2349 -0.440865 -3.17671
thorax -2.4065 -0.10037 1.6854
lowerneck -0.692291 -21.5562 -20.5604
upperneck 4.44912 -32.3167 29.543
head 10.1437 -15.1758 8.00819
rclavicle 1.27222e-014 3.18055e-015
rhumerus 120.476 -71.3608 -158.82
rradius 10.8968
rwrist 10.7494
rhand 0.366934 4.1552
rfingers 7.12502
rthumb 25.9418 -24.0946
lclavicle 1.27222e-014 3.18055e-015
lhumerus -19.5663 2.45217 32.2896
lradius 32.684
lwrist 6.59958
lhand -28.2377 20.2082
lfingers 7.12502
lthumb -1.61549 50.1818
rfemur -20.8392 -0.0248532 30.1013
rtibia 35.1846
rfoot -12.4694 -11.7041
rtoes 5.56019
lfemur -21.6704 15.7275 -15.9747
ltibia 77.0717
lfoot -9.25236 14.6356
ltoes -6.95229
251
root -4.88766 17.4434 -14.9124 209.369 60.3661 -151.966
lowerback 8.12338 0.218248 -8.85801
upperback 2.09315 -0.334515 -3.12084
thorax -2.33127 -0.0531619 1.75241
lowerneck -0.513367 -21.4455 -20.4425
upperneck 4.47282 -32.1737 29.5262
head 10.0607 -15.1321 8.05792
rclavicle 4.77083e-014 9.85972e-014
rhumerus 117.468 -71.6227 -156.058
rradius 10.8993
rwrist 9.96083
rhand -0.844145 4.20407
rfingers 7.12502
rthumb 24.7816 -24.2104
lclavicle 4.77083e-014 9.85972e-014
lhumerus -20.3722 2.65808 31.8414
lradius 32.616
lwrist 6.40699
lhand -28.0784 19.953
lfingers 7.12502
lthumb -1.4616 49.9277
rfemur -20.6528 1.13602 29.7554
rtibia 35.5578
rfoot -12.8545 -11.6787
rtoes 4.04573
lfemur -23.0298 16.0182 -15.9764
ltibia 78.2134
lfoot -9.83492 14.4794
ltoes -11.7646
252
root -4.73967 17.4167 -15.11 210.884 62.084 -150.671
lowerback 8.11661 0.309188 -9.13336
upperback 1.893 -0.261277 -3.04363
thorax -2.54223 -0.00755177 1.97727
lowerneck -0.0605194 -21.2933 -20.968
upperneck 4.30985 -32.0377 29.8428
head 10.0615 -15.1288 8.30624
rclavicle -3.26007e-014 -5.08889e-014
rhumerus 116.018 -71.6502 -154.756
rradius 10.7566
rwrist 9.77391
rhand -1.70444 4.61157
rfingers 7.12502
rthumb 23.9568 -23.9138
lclavicle -3.26007e-014 -5.08889e-014
lhumerus -21.1602 3.53082 31.476
lradius 32.3732
lwrist 5.73126
lhand -28.1116 19.1733
lfingers 7.12502
lthumb -1.49365 49.1478
rfemur -20.2739 2.44484 29.1073
rtibia 35.7817
rfoot -13.3803 -11.5369
rtoes 4.04585
lfemur -24.8753 15.7609 -15.9208
ltibia 79.3477
lfoot -10.3021 13.5578
ltoes -13.9013
253
root -4.58735 17.3921 -15.3089 212.323 63.6387 -149.286
lowerback 8.10336 0.408975 -9.13795
upperback 1.91235 -0.128333 -3.07855
thorax -2.52813 0.0567869 1.93004
lowerneck -0.0193692 -21.1164 -21.2925
upperneck 4.39819 -31.854 30.0782
head 10.1534 -15.0486 8.4821
rclavicle 4.77083e-015 -2.54444e-014
rhumerus 114.348 -71.8639 -153.167
rradius 10.8051
rwrist 9.02972
rhand -1.86641 4.24037
rfingers 7.12502
rthumb 23.8015 -24.3053
lclavicle 4.77083e-015 -2.54444e-014
lhumerus -21.3943 4.51788 31.027
lradius 31.9564
lwrist 4.77896
lhand -27.8787 18.6755
lfingers 7.12502
lthumb -1.26872 48.6515
rfemur -19.6678 3.69273 28.5127
rtibia 35.8862
rfoot -13.9347 -11.384
rtoes 3.3247
lfemur -26.4617 15.3015 -15.7436
ltibia 80.1928
lfoot -10.4153 12.3664
ltoes -19.456
254
root -4.42791 17.3601 -15.5021 215.681 64.6406 -145.668
lowerback 8.12883 0.446645 -8.07201
upperback 1.98479 -0.000302136 -2.9517
thorax -2.4846 0.104621 1.4598
lowerneck -0.618853 -21.2795 -20.39
upperneck 4.81904 -32.0173 29.6134
head 10.1737 -15.04 8.12329
rclavicle -1.11319e-014 2.8625e-014
rhumerus 107.701 -72.7719 -146.647
rradius 11.074
rwrist 6.7464
rhand -1.79554 3.22732
rfingers 7.12502
rthumb 23.8695 -25.3095
lclavicle -1.11319e-014 2.8625e-014
lhumerus -21.7467 4.43925 30.4475
lradius 31.7341
lwrist 4.66927
lhand -27.2106 18.6512
lfingers 7.12502
lthumb -0.623525 48.6301
rfemur -18.7221 5.13154 29.1062
rtibia 35.6558
rfoot -14.2753 -11.6501
rtoes 0.844244
lfemur -27.9752 15.1079 -14.2891
ltibia 80.8799
lfoot -11.0616 11.0441
ltoes -22.1128
255
root -4.26277 17.3325 -15.6913 219.281 65.4717 -141.85
lowerback 8.10743 0.48264 -7.17163
upperback 2.13379 0.125604 -2.71378
thorax -2.33055 0.149169 1.19584
lowerneck -0.950931 -21.3528 -19.9609
upperneck 4.99432 -32.0667 29.3142
head 10.1567 -15.028 7.93069
rclavicle -8.74653e-015 -3.18055e-015
rhumerus 106.277 -72.806 -145.368
rradius 11.1108
rwrist 6.41743
rhand 0.369228 2.6248
rfingers 7.12502
rthumb 25.944 -25.6247
lclavicle -8.74653e-015 -3.18055e-015
lhumerus -22.0734 4.71512 30.0976
lradius 31.4694
lwrist 4.53323
lhand -26.7629 18.2505
lfingers 7.12502
lthumb -0.191067 48.2302
rfemur -17.7637 6.63484 29.7087
rtibia 35.3432
rfoot -14.4972 -12.0549
rtoes -1.62866
lfemur -29.519 14.8297 -12.822
ltibia 81.2195
lfoot -12.4527 9.95481
ltoes -21.0767
256
root -4.09088 17.3238 -15.8923 220.662 66.6937 -140.394
lowerback 9.98017 0.919429 -6.13456
upperback 1.02362 0.522613 -3.49297
thorax -4.55186 0.402682 -0.275848
lowerneck 0.51372 -21.5076 -20.1411
upperneck 5.65942 -32.6855 29.3674
head 10.3355 -15.4139 7.95896
rclavicle 2.54444e-014 -5.725e-014
rhumerus 97.7689 -76.2806 -137.007
rradius 11.5718
rwrist 3.87954
rhand 3.0011 1.89427
rfingers 7.12502
rthumb 28.4616 -25.9608
lclavicle 2.54444e-014 -5.725e-014
lhumerus -21.8459 2.0781 29.6256
lradius 31.3292
lwrist 4.8652
lhand -26.7067 17.8989
lfingers 7.12502
lthumb -0.136823 47.8786
rfemur -16.6458 7.52091 29.046
rtibia 34.9374
rfoot -15.0562 -12.0317
rtoes -1.76949
lfemur -30.7048 13.9728 -12.7623
ltibia 81.046
lfoot -14.1121 9.08937
ltoes -17.9922
